<svg width="20" height="20" viewBox="0 0 20 20" fill="none" xmlns="http://www.w3.org/2000/svg">
<g clip-path="url(#clip0_7_1069)">
<path d="M2.14287 2.85718C1.76398 2.85718 1.40062 3.00769 1.13271 3.27559C0.864804 3.54351 0.714294 3.90686 0.714294 4.28575V17.8572C0.714294 18.236 0.864804 18.5995 1.13271 18.8673C1.40062 19.1352 1.76398 19.2857 2.14287 19.2857H17.8572C18.236 19.2857 18.5994 19.1352 18.8673 18.8673C19.1352 18.5995 19.2857 18.236 19.2857 17.8572V4.28575C19.2857 3.90686 19.1352 3.54351 18.8673 3.27559C18.5994 3.00769 18.236 2.85718 17.8572 2.85718H15" stroke="#001D5D" stroke-width="1.42857" stroke-linecap="round" stroke-linejoin="round"/>
<path d="M5 0.714355V5.00007" stroke="#001D5D" stroke-width="1.42857" stroke-linecap="round" stroke-linejoin="round"/>
<path d="M15 0.714355V5.00007" stroke="#001D5D" stroke-width="1.42857" stroke-linecap="round" stroke-linejoin="round"/>
<path d="M5 2.85718H12.1429" stroke="#001D5D" stroke-width="1.42857" stroke-linecap="round" stroke-linejoin="round"/>
<path d="M5.00002 9.28575C5.39451 9.28575 5.71431 8.96595 5.71431 8.57146C5.71431 8.17698 5.39451 7.85718 5.00002 7.85718C4.60554 7.85718 4.28574 8.17698 4.28574 8.57146C4.28574 8.96595 4.60554 9.28575 5.00002 9.28575Z" stroke="#001D5D" stroke-width="1.42857" stroke-linecap="round" stroke-linejoin="round"/>
<path d="M10 9.28575C10.3945 9.28575 10.7143 8.96595 10.7143 8.57146C10.7143 8.17698 10.3945 7.85718 10 7.85718C9.60554 7.85718 9.28574 8.17698 9.28574 8.57146C9.28574 8.96595 9.60554 9.28575 10 9.28575Z" stroke="#001D5D" stroke-width="1.42857" stroke-linecap="round" stroke-linejoin="round"/>
<path d="M15 9.28575C15.3945 9.28575 15.7143 8.96595 15.7143 8.57146C15.7143 8.17698 15.3945 7.85718 15 7.85718C14.6056 7.85718 14.2857 8.17698 14.2857 8.57146C14.2857 8.96595 14.6056 9.28575 15 9.28575Z" stroke="#001D5D" stroke-width="1.42857" stroke-linecap="round" stroke-linejoin="round"/>
<path d="M5.00002 15.0001C5.39451 15.0001 5.71431 14.6802 5.71431 14.2858C5.71431 13.8913 5.39451 13.5715 5.00002 13.5715C4.60554 13.5715 4.28574 13.8913 4.28574 14.2858C4.28574 14.6802 4.60554 15.0001 5.00002 15.0001Z" stroke="#001D5D" stroke-width="1.42857" stroke-linecap="round" stroke-linejoin="round"/>
<path d="M10 15.0001C10.3945 15.0001 10.7143 14.6802 10.7143 14.2858C10.7143 13.8913 10.3945 13.5715 10 13.5715C9.60554 13.5715 9.28574 13.8913 9.28574 14.2858C9.28574 14.6802 9.60554 15.0001 10 15.0001Z" stroke="#001D5D" stroke-width="1.42857" stroke-linecap="round" stroke-linejoin="round"/>
</g>
<defs>
<clipPath id="clip0_7_1069">
<rect width="20" height="20" fill="white"/>
</clipPath>
</defs>
</svg>
