<svg width="20" height="20" viewBox="0 0 20 20" fill="none" xmlns="http://www.w3.org/2000/svg">
<g clip-path="url(#clip0_7_1055)">
<path d="M3.57144 19.1713C5.14939 19.1713 6.42858 17.8921 6.42858 16.3142C6.42858 14.7362 5.14939 13.457 3.57144 13.457C1.99348 13.457 0.714294 14.7362 0.714294 16.3142C0.714294 17.8921 1.99348 19.1713 3.57144 19.1713Z" stroke="#001D5D" stroke-width="1.42857" stroke-linecap="round" stroke-linejoin="round"/>
<path d="M16.4286 15.6C18.0065 15.6 19.2857 14.3208 19.2857 12.7429C19.2857 11.1649 18.0065 9.88574 16.4286 9.88574C14.8506 9.88574 13.5714 11.1649 13.5714 12.7429C13.5714 14.3208 14.8506 15.6 16.4286 15.6Z" stroke="#001D5D" stroke-width="1.42857" stroke-linecap="round" stroke-linejoin="round"/>
<path d="M19.2857 12.7428V1.5428C19.2851 1.4335 19.2594 1.32581 19.2106 1.228C19.1619 1.13019 19.0913 1.04488 19.0043 0.97864C18.9174 0.9124 18.8164 0.866995 18.7092 0.845922C18.6019 0.824848 18.4913 0.828668 18.3857 0.857088L6.95716 4.02852C6.80613 4.06918 6.67263 4.15829 6.57714 4.28216C6.48166 4.40604 6.42947 4.55783 6.42859 4.71423V16.3142" stroke="#001D5D" stroke-width="1.42857" stroke-linecap="round" stroke-linejoin="round"/>
<path d="M6.42859 8.45717L19.2857 4.88574" stroke="#001D5D" stroke-width="1.42857" stroke-linecap="round" stroke-linejoin="round"/>
</g>
<defs>
<clipPath id="clip0_7_1055">
<rect width="20" height="20" fill="white"/>
</clipPath>
</defs>
</svg>
