<svg width="20" height="20" viewBox="0 0 20 20" fill="none" xmlns="http://www.w3.org/2000/svg">
<path d="M7.14284 9.28568C9.11528 9.28568 10.7143 7.68669 10.7143 5.71425C10.7143 3.74181 9.11528 2.14282 7.14284 2.14282C5.1704 2.14282 3.57141 3.74181 3.57141 5.71425C3.57141 7.68669 5.1704 9.28568 7.14284 9.28568Z" stroke="#001D5D" stroke-width="1.42857" stroke-linecap="round" stroke-linejoin="round"/>
<path d="M0.714294 19.2858H7.14287H13.5714V18.5114C13.5601 17.4224 13.2729 16.3542 12.7368 15.4064C12.2006 14.4587 11.433 13.6622 10.5056 13.0915C9.57822 12.5208 8.52131 12.1944 7.43361 12.1429C7.33664 12.1384 7.23969 12.136 7.14287 12.1357C7.04604 12.136 6.94909 12.1384 6.85212 12.1429C5.76442 12.1944 4.70751 12.5208 3.78011 13.0915C2.85272 13.6622 2.08511 14.4587 1.54897 15.4064C1.01283 16.3542 0.725667 17.4224 0.714294 18.5114V19.2858Z" stroke="#001D5D" stroke-width="1.42857" stroke-linecap="round" stroke-linejoin="round"/>
<path d="M12.8572 9.28568C14.8296 9.28568 16.4286 7.68669 16.4286 5.71425C16.4286 3.74181 14.8296 2.14282 12.8572 2.14282" stroke="#001D5D" stroke-width="1.42857" stroke-linecap="round" stroke-linejoin="round"/>
<path d="M16.4286 19.2856H19.2857V18.5111C19.2743 17.4221 18.9872 16.354 18.451 15.4061C17.9149 14.4584 17.1473 13.662 16.2199 13.0913C15.6205 12.7223 14.9667 12.4555 14.2857 12.2991" stroke="#001D5D" stroke-width="1.42857" stroke-linecap="round" stroke-linejoin="round"/>
</svg>
